<mxfile host="app.diagrams.net" modified="2024-01-17T06:52:19.959Z" agent="Mozilla/5.0 (Windows NT 10.0; Win64; x64) AppleWebKit/537.36 (KHTML, like Gecko) Chrome/120.0.0.0 Safari/537.36 OPR/106.0.0.0" version="22.1.19" etag="ko2PqD5s0WX1B_bbUtpu" type="github">
  <diagram name="Page-1" id="bv_kR-knbywWEwK9-eUH">
    <mxGraphModel>
      <root>
        <mxCell id="0" />
        <mxCell id="1" parent="0" />
      </root>
    </mxGraphModel>
  </diagram>
</mxfile>
